PathFileType	4	(X/Y/Z)	E:\Qualisys_Data\Carbon_Farble_Plate\Data\Amateur_Runner\S14\T2\S14T2V25_c3d.trc
DataRate	CameraRate	NumFrames	NumMarkers	Units	OrigDataRate	OrigDataStartFrame	OrigNumFrames
200.000000	200.000000	4	39	mm	200.000000	79	317
Frame#	Time	LSHO			RSHO			LICST			RICST			LASIS			LHEEL			RASIS			LTROC			RTROC			SACR			LTH1			LSK4			LTH2			LTH3			RHM5			LSK2			LTH4			RTH1			LTOE			RTH2			RTH3			RTH4			LLEP			RLEP			LSK1			LSK3			RSK1			LHM5			RSK2			LFT1			RSK3			RSK4			LLME			RLME			RTOE			RHEEL			RFT1			RFT2			LFT2			
		X1	Y1	Z1	X2	Y2	Z2	X3	Y3	Z3	X4	Y4	Z4	X5	Y5	Z5	X6	Y6	Z6	X7	Y7	Z7	X8	Y8	Z8	X9	Y9	Z9	X10	Y10	Z10	X11	Y11	Z11	X12	Y12	Z12	X13	Y13	Z13	X14	Y14	Z14	X15	Y15	Z15	X16	Y16	Z16	X17	Y17	Z17	X18	Y18	Z18	X19	Y19	Z19	X20	Y20	Z20	X21	Y21	Z21	X22	Y22	Z22	X23	Y23	Z23	X24	Y24	Z24	X25	Y25	Z25	X26	Y26	Z26	X27	Y27	Z27	X28	Y28	Z28	X29	Y29	Z29	X30	Y30	Z30	X31	Y31	Z31	X32	Y32	Z32	X33	Y33	Z33	X34	Y34	Z34	X35	Y35	Z35	X36	Y36	Z36	X37	Y37	Z37	X38	Y38	Z38	X39	Y39	Z39	

80	0.395	-1861.41650390625	1493.5654296875	-512.9700317382812	-1773.156372070312	1463.514892578125	-240.5591888427734	-1873.067993164062	1023.009643554688	-505.3499755859375	-1835.07470703125	1015.366394042969	-235.5555114746094	-1832.529907226562	968.13134765625	-481.292724609375	-1713.435424804688	141.4744262695312	-367.03369140625	-1821.175537109375	967.7600708007812	-253.8707885742188	-1944.138916015625	909.3187255859376	-536.5813598632812	-1988.956176757812	923.3365478515624	-200.8812561035156	-1994.613159179688	1026.537109375	-369.5413208007812	-1760.135375976562	720.51123046875	-523.5640258789062	-1729.992919921875	356.9442443847656	-461.3251037597656	-1823.131958007812	680.50390625	-500.2621765136719	-1698.73876953125	647.6726684570312	-493.9417724609375	-2533.29638671875	276.4141845703125	-231.1093444824219	-1738.632568359375	454.2189331054688	-481.6534729003906	-1765.240112304688	605.4075317382812	-479.1774291992188	-1971.621215820312	678.94970703125	-206.9428558349609	-1463.088623046875	203.6997375488281	-408.7251892089844	-2039.452880859375	718.7083129882812	-196.9475555419922	-2018.955810546875	590.9617919921875	-229.4608459472656	-2091.190673828125	632.78759765625	-215.9094085693359	-1704.732788085938	555.5267333984375	-487.4374694824219	-2111.620849609375	561.0909423828125	-221.4255523681641	-1657.596435546875	464.0304260253906	-477.7142333984375	-1649.479736328125	363.2123718261719	-460.0349426269531	-2209.194091796875	483.1487426757812	-221.1044006347656	-1523.864135742188	156.89599609375	-464.5763244628906	-2249.455322265625	559.0205688476562	-225.5516662597656	-1692.319702148438	119.817024230957	-344.6580200195312	-2302.076171875	440.3077697753906	-235.9026641845703	-2332.465576171875	513.19921875	-241.9530029296875	-1665.55078125	181.6490173339844	-433.1554870605469	-2468.75341796875	409.0367736816406	-262.4597778320312	-2507.50537109375	193.4589233398438	-281.6208190917969	-2490.53076171875	452.7379760742188	-324.7165832519531	-2518.082763671875	432.82958984375	-356.299072265625	-2524.395751953125	452.8593444824219	-304.7314758300781	-1703.03173828125	108.9211959838867	-398.1966857910156
81	0.4	-1839.32373046875	1492.263916015625	-513.9031982421875	-1749.832641601562	1462.807373046875	-241.6529693603516	-1851.074584960938	1021.817932128906	-504.5392456054688	-1813.577270507812	1015.35009765625	-234.3857269287109	-1810.8251953125	967.0466918945312	-481.0671081542969	-1680.632202148438	136.5261077880859	-365.6543884277344	-1798.099609375	968.0309448242188	-252.8980407714844	-1923.501098632812	907.9151000976562	-535.6939086914062	-1965.093872070312	922.1432495117188	-199.8534393310547	-1972.903198242188	1025.573974609375	-369.2205810546875	-1742.394897460938	715.488525390625	-525.28662109375	-1706.669311523438	351.5184020996094	-459.9815063476562	-1805.533447265625	677.2587890625	-499.8448486328125	-1682.1044921875	641.6918334960938	-495.3990173339844	-2515.08154296875	287.7911987304688	-230.4170074462891	-1718.450561523438	448.8448791503906	-480.4189758300781	-1748.798950195312	601.9143676757812	-478.5787353515625	-1946.996826171875	677.7066650390625	-206.6448364257812	-1432.935791015625	207.8736572265625	-408.5520935058594	-2015.109497070312	716.8917236328125	-196.1577453613281	-1993.333374023438	589.6549072265625	-228.9841003417969	-2066.027587890625	630.756103515625	-215.4488372802734	-1687.734497070312	550.3175659179688	-487.7565612792969	-2086.263427734375	559.142822265625	-220.2327270507812	-1637.455078125	460.1432800292969	-477.7130432128906	-1626.534301757812	360.426513671875	-460.3382568359375	-2186.324462890625	484.0850830078125	-220.4069061279297	-1493.1220703125	157.5056304931641	-462.9651184082031	-2224.05859375	561.0632934570312	-225.4898681640625	-1659.646850585938	115.7310256958008	-342.7984619140625	-2279.5126953125	443.0079650878906	-235.5435028076172	-2308.618896484375	517.4869384765625	-242.2771453857422	-1634.580810546875	177.8205261230469	-431.447998046875	-2451.5146484375	417.9364624023438	-262.2707824707031	-2492.827392578125	203.44775390625	-280.9598999023438	-2469.554443359375	461.9112854003906	-325.8799743652344	-2495.496826171875	442.4398193359375	-356.2866516113281	-2501.404296875	463.3883972167969	-304.9695739746094	-1669.028686523438	103.8332061767578	-396.0417175292969
82	0.405	-1817.019165039062	1490.750122070312	-514.7901000976562	-1725.58935546875	1461.923217773438	-242.4064483642578	-1829.4970703125	1019.996276855469	-504.4916076660156	-1791.205810546875	1014.176208496094	-234.0694274902344	-1788.619018554688	966.5430297851562	-480.7496337890625	-1650.6708984375	132.0510864257812	-364.1000061035156	-1776.1162109375	967.1982421875	-253.0923919677734	-1902.71923828125	906.3770141601562	-534.7174072265625	-1942.821411132812	919.7283935546876	-199.1655426025391	-1950.578491210938	1023.905029296875	-368.7730407714844	-1725.35302734375	711.040771484375	-526.9020385742188	-1683.931884765625	347.1015625	-458.6859741210938	-1788.547119140625	674.3776245117188	-499.0691833496094	-1665.167724609375	635.9197998046875	-497.3873291015625	-2496.97607421875	298.6030883789062	-230.4232025146484	-1698.899780273438	443.8841552734375	-479.2362365722656	-1733.158813476562	597.8118286132812	-478.076416015625	-1921.901123046875	676.3981323242188	-206.2759704589844	-1405.402709960938	211.4534606933594	-409.3694763183594	-1989.677734375	713.9445190429688	-195.3074951171875	-1968.258422851562	587.627197265625	-228.7784881591797	-2041.712036132812	628.7471923828125	-214.8655548095703	-1670.31298828125	545.47998046875	-487.9144897460938	-2061.506591796875	556.5864868164062	-219.4499816894531	-1617.919311523438	456.8656005859375	-477.9015197753906	-1603.817626953125	357.4249572753906	-460.13037109375	-2162.010009765625	484.7235717773438	-220.2990264892578	-1462.692749023438	157.7387084960938	-462.7020874023438	-2198.01220703125	562.2435302734375	-225.4350433349609	-1628.897338867188	112.3204193115234	-341.1997375488281	-2257.3388671875	446.9217529296875	-235.6992492675781	-2283.389892578125	521.3040771484375	-242.0543212890625	-1606.19921875	174.5949859619141	-430.3611145019531	-2429.43798828125	426.3890380859375	-261.4342346191406	-2477.654541015625	213.4578704833984	-281.2914733886719	-2444.441162109375	469.0142211914062	-326.3699645996094	-2472.6318359375	452.4959411621094	-356.1315002441406	-2477.8896484375	473.5885009765625	-304.833251953125	-1637.014404296875	99.80671691894533	-394.1195068359375
83	0.41	-1795.362060546875	1489.043334960938	-516.5181884765625	-1703.284545898438	1460.801025390625	-243.7889251708984	-1807.769775390625	1018.92333984375	-503.9037780761719	-1769.365600585938	1012.840393066406	-234.197265625	-1766.578979492188	965.3706665039062	-480.6289367675781	-1621.382690429688	128.9643859863281	-362.3611450195312	-1753.191284179688	966.5774536132812	-252.9323883056641	-1881.395874023438	904.1283569335938	-533.892822265625	-1920.2080078125	917.6700439453124	-198.1048583984375	-1929.308837890625	1022.118347167969	-368.5248107910156	-1707.798217773438	706.0112915039062	-527.8345336914062	-1661.927490234375	342.3049011230469	-457.0958557128906	-1771.732788085938	671.0525512695312	-498.3348388671875	-1648.759765625	630.2188110351562	-499.1063537597656	-2478.018798828125	309.3222961425781	-230.2960510253906	-1679.262329101562	438.6609191894531	-478.1161499023438	-1717.18408203125	593.7216186523438	-476.8194885253906	-1897.010375976562	674.50244140625	-206.1486663818359	-1378.481201171875	214.7052001953125	-410.123779296875	-1965.1826171875	711.6431274414062	-194.2906036376953	-1943.020874023438	585.346435546875	-229.1972351074219	-2016.292114257812	626.0230712890625	-214.4878387451172	-1652.520874023438	540.6879272460938	-487.4395446777344	-2035.274291992188	554.2672119140625	-218.6969757080078	-1598.411743164062	453.1473693847656	-478.2274169921875	-1581.60693359375	354.2932739257812	-460.7371215820312	-2137.554931640625	484.1286315917969	-219.9814147949219	-1434.460693359375	157.6304016113281	-462.055908203125	-2172.15966796875	563.5838012695312	-225.1090393066406	-1599.042358398438	109.6332473754883	-339.1163330078125	-2234.440673828125	449.1813049316406	-236.1482238769531	-2261.68994140625	528.0101928710938	-245.7870178222656	-1579.149536132812	171.9795837402344	-429.5338134765625	-2405.437744140625	434.4304809570312	-261.3787841796875	-2460.422119140625	223.8445892333984	-280.9537353515625	-2421.69775390625	478.9454956054688	-325.6156005859375	-2449.351318359375	463.0192565917969	-357.2296447753906	-2452.953369140625	482.8927001953125	-303.9701232910156	-1606.574096679688	95.8394012451172	-392.1599731445312
